<svg width="25" height="25" viewBox="0 0 25 25" fill="none" xmlns="http://www.w3.org/2000/svg">
<rect width="25" height="25" fill="#D9D9D9"/>
<mask id="path-2-outside-1_1_5" maskUnits="userSpaceOnUse" x="3" y="3" width="17" height="19" fill="black">
<rect fill="white" x="3" y="3" width="17" height="19"/>
<path d="M15.28 13.46C16.3067 13.1667 17.1133 12.6733 17.7 11.98C18.2867 11.2867 18.58 10.4867 18.58 9.58C18.58 8.74 18.24 7.94667 17.56 7.2C16.8933 6.46667 16.0533 5.88 15.04 5.44C14.04 5 13.0867 4.78 12.18 4.78C11.5133 4.78 10.86 4.81333 10.22 4.88C9.15333 4.94667 8.32667 4.98 7.74 4.98H5.2V5.6L7.08 7.08V19.24L5 19.92L5.4 20.72H7.72C8.93333 20.72 10.1267 20.76 11.3 20.84C12.2067 20.8933 12.8733 20.92 13.3 20.92C14.1933 20.92 14.98 20.7467 15.66 20.4C16.34 20.0533 16.86 19.58 17.22 18.98C17.5933 18.3933 17.78 17.7333 17.78 17C17.78 16.3333 17.5467 15.6933 17.08 15.08C16.6267 14.48 16.0267 13.9533 15.28 13.5V13.46ZM15.08 16C15.08 17.0533 14.8 17.9133 14.24 18.58C13.68 19.2467 12.8467 19.58 11.74 19.58C10.94 19.58 10.22 19.3533 9.58 18.9V13.6H12.44C13.2667 13.6 13.9133 13.8067 14.38 14.22C14.8467 14.6467 15.08 15.2467 15.08 16.02V16ZM12.74 6.24C13.7 6.24 14.46 6.48 15.02 6.96C15.5933 7.44 15.88 8.08667 15.88 8.9C15.88 9.94 15.5733 10.78 14.96 11.42C14.36 12.06 13.46 12.4 12.26 12.44C12.1667 12.4267 12.04 12.42 11.88 12.42H9.58V6.76C10.4733 6.4 11.5267 6.22 12.74 6.22V6.24Z"/>
</mask>
<path d="M15.28 13.46C16.3067 13.1667 17.1133 12.6733 17.7 11.98C18.2867 11.2867 18.58 10.4867 18.58 9.58C18.58 8.74 18.24 7.94667 17.56 7.2C16.8933 6.46667 16.0533 5.88 15.04 5.44C14.04 5 13.0867 4.78 12.18 4.78C11.5133 4.78 10.86 4.81333 10.22 4.88C9.15333 4.94667 8.32667 4.98 7.74 4.98H5.2V5.6L7.08 7.08V19.24L5 19.92L5.4 20.72H7.72C8.93333 20.72 10.1267 20.76 11.3 20.84C12.2067 20.8933 12.8733 20.92 13.3 20.92C14.1933 20.92 14.98 20.7467 15.66 20.4C16.34 20.0533 16.86 19.58 17.22 18.98C17.5933 18.3933 17.78 17.7333 17.78 17C17.78 16.3333 17.5467 15.6933 17.08 15.08C16.6267 14.48 16.0267 13.9533 15.28 13.5V13.46ZM15.08 16C15.08 17.0533 14.8 17.9133 14.24 18.58C13.68 19.2467 12.8467 19.58 11.74 19.58C10.94 19.58 10.22 19.3533 9.58 18.9V13.6H12.44C13.2667 13.6 13.9133 13.8067 14.38 14.22C14.8467 14.6467 15.08 15.2467 15.08 16.02V16ZM12.74 6.24C13.7 6.24 14.46 6.48 15.02 6.96C15.5933 7.44 15.88 8.08667 15.88 8.9C15.88 9.94 15.5733 10.78 14.96 11.42C14.36 12.06 13.46 12.4 12.26 12.44C12.1667 12.4267 12.04 12.42 11.88 12.42H9.58V6.76C10.4733 6.4 11.5267 6.22 12.74 6.22V6.24Z" fill="black"/>
<path d="M15.28 13.46H14.28V12.7057L15.0053 12.4985L15.28 13.46ZM17.7 11.98L18.4634 12.6259L18.4634 12.6259L17.7 11.98ZM17.56 7.2L16.8207 7.87333L16.8201 7.87267L17.56 7.2ZM15.04 5.44L14.6417 6.35727L14.6373 6.35532L15.04 5.44ZM10.22 4.88L10.3236 5.87462L10.303 5.87676L10.2824 5.87805L10.22 4.88ZM5.2 4.98H4.2V3.98H5.2V4.98ZM5.2 5.6L4.58144 6.38574L4.2 6.08546V5.6H5.2ZM7.08 7.08L7.69856 6.29426L8.08 6.59454V7.08H7.08ZM7.08 19.24H8.08V19.9652L7.39074 20.1905L7.08 19.24ZM5 19.92L4.10557 20.3672L3.58691 19.3299L4.68926 18.9695L5 19.92ZM5.4 20.72V21.72H4.78197L4.50557 21.1672L5.4 20.72ZM11.3 20.84L11.2413 21.8383L11.232 21.8377L11.3 20.84ZM17.22 18.98L16.3625 18.4655L16.3693 18.4542L16.3763 18.4431L17.22 18.98ZM17.08 15.08L16.2842 15.6855L16.2821 15.6828L17.08 15.08ZM15.28 13.5L14.761 14.3548L14.28 14.0627V13.5H15.28ZM9.58 18.9L9.00198 19.716L8.58 19.4171V18.9H9.58ZM9.58 13.6H8.58V12.6H9.58V13.6ZM14.38 14.22L15.043 13.4714L15.0489 13.4766L15.0548 13.482L14.38 14.22ZM12.74 6.24V7.24H11.74V6.24H12.74ZM15.02 6.96L14.378 7.72681L14.3692 7.71926L15.02 6.96ZM14.96 11.42L14.2304 10.736L14.238 10.7281L14.96 11.42ZM12.26 12.44L12.2933 13.4394L12.2055 13.4424L12.1186 13.4299L12.26 12.44ZM9.58 12.42V13.42H8.58V12.42H9.58ZM9.58 6.76H8.58V6.08484L9.20622 5.83248L9.58 6.76ZM12.74 6.22V5.22H13.74V6.22H12.74ZM15.0053 12.4985C15.8756 12.2498 16.4992 11.8511 16.9366 11.3341L18.4634 12.6259C17.7275 13.4956 16.7377 14.0835 15.5547 14.4215L15.0053 12.4985ZM16.9366 11.3341C17.3708 10.8209 17.58 10.2497 17.58 9.58H19.58C19.58 10.7236 19.2025 11.7524 18.4634 12.6259L16.9366 11.3341ZM17.58 9.58C17.58 9.03754 17.3687 8.47513 16.8207 7.87333L18.2993 6.52667C19.1113 7.4182 19.58 8.44246 19.58 9.58H17.58ZM16.8201 7.87267C16.2591 7.25559 15.5401 6.74735 14.6417 6.35726L15.4383 4.52274C16.5666 5.01265 17.5276 5.67775 18.2999 6.52733L16.8201 7.87267ZM14.6373 6.35532C13.7387 5.95994 12.9226 5.78 12.18 5.78V3.78C13.2507 3.78 14.3413 4.04006 15.4427 4.52468L14.6373 6.35532ZM12.18 5.78C11.5467 5.78 10.928 5.81166 10.3236 5.87462L10.1164 3.88538C10.792 3.815 11.48 3.78 12.18 3.78V5.78ZM10.2824 5.87805C9.20881 5.94515 8.35784 5.98 7.74 5.98V3.98C8.2955 3.98 9.09786 3.94818 10.1576 3.88195L10.2824 5.87805ZM7.74 5.98H5.2V3.98H7.74V5.98ZM6.2 4.98V5.6H4.2V4.98H6.2ZM5.81856 4.81426L7.69856 6.29426L6.46144 7.86574L4.58144 6.38574L5.81856 4.81426ZM8.08 7.08V19.24H6.08V7.08H8.08ZM7.39074 20.1905L5.31074 20.8705L4.68926 18.9695L6.76926 18.2895L7.39074 20.1905ZM5.89443 19.4728L6.29443 20.2728L4.50557 21.1672L4.10557 20.3672L5.89443 19.4728ZM5.4 19.72H7.72V21.72H5.4V19.72ZM7.72 19.72C8.95531 19.72 10.1713 19.7607 11.368 19.8423L11.232 21.8377C10.082 21.7593 8.91135 21.72 7.72 21.72V19.72ZM11.3587 19.8417C12.2625 19.8949 12.9045 19.92 13.3 19.92V21.92C12.8422 21.92 12.1508 21.8918 11.2413 21.8383L11.3587 19.8417ZM13.3 19.92C14.0623 19.92 14.6886 19.7728 15.2058 19.5091L16.1142 21.2909C15.2714 21.7206 14.3243 21.92 13.3 21.92V19.92ZM15.2058 19.5091C15.7345 19.2396 16.1077 18.8902 16.3625 18.4655L18.0775 19.4945C17.6123 20.2698 16.9455 20.8671 16.1142 21.2909L15.2058 19.5091ZM16.3763 18.4431C16.6419 18.0259 16.78 17.554 16.78 17H18.78C18.78 17.9126 18.5448 18.7608 18.0637 19.5169L16.3763 18.4431ZM16.78 17C16.78 16.5852 16.6399 16.1531 16.2842 15.6855L17.8758 14.4745C18.4534 15.2336 18.78 16.0815 18.78 17H16.78ZM16.2821 15.6828C15.9163 15.1986 15.4169 14.753 14.761 14.3548L15.799 12.6452C16.6365 13.1537 17.3371 13.7614 17.8779 14.4772L16.2821 15.6828ZM14.28 13.5V13.46H16.28V13.5H14.28ZM16.08 16C16.08 17.2372 15.7471 18.3406 15.0057 19.2232L13.4743 17.9368C13.8529 17.4861 14.08 16.8694 14.08 16H16.08ZM15.0057 19.2232C14.2063 20.1749 13.0555 20.58 11.74 20.58V18.58C12.6378 18.58 13.1537 18.3185 13.4743 17.9368L15.0057 19.2232ZM11.74 20.58C10.7374 20.58 9.81455 20.2916 9.00198 19.716L10.158 18.084C10.6255 18.4151 11.1426 18.58 11.74 18.58V20.58ZM8.58 18.9V13.6H10.58V18.9H8.58ZM9.58 12.6H12.44V14.6H9.58V12.6ZM12.44 12.6C13.43 12.6 14.3408 12.8494 15.043 13.4714L13.717 14.9686C13.4859 14.7639 13.1034 14.6 12.44 14.6V12.6ZM15.0548 13.482C15.7738 14.1393 16.08 15.0335 16.08 16.02H14.08C14.08 15.4598 13.9196 15.154 13.7052 14.958L15.0548 13.482ZM14.08 16.02V16H16.08V16.02H14.08ZM12.74 5.24C13.8654 5.24 14.8807 5.52353 15.6708 6.20074L14.3692 7.71926C14.0393 7.43647 13.5346 7.24 12.74 7.24V5.24ZM15.6619 6.19324C16.4839 6.88139 16.88 7.82016 16.88 8.9H14.88C14.88 8.35317 14.7028 7.99861 14.3781 7.72676L15.6619 6.19324ZM16.88 8.9C16.88 10.15 16.5043 11.2539 15.682 12.1119L14.238 10.7281C14.6424 10.3061 14.88 9.72998 14.88 8.9H16.88ZM15.6895 12.1039C14.8499 12.9995 13.6582 13.3939 12.2933 13.4394L12.2267 11.4406C13.2618 11.4061 13.8701 11.1205 14.2305 10.7361L15.6895 12.1039ZM12.1186 13.4299C12.0933 13.4263 12.0204 13.42 11.88 13.42V11.42C12.0596 11.42 12.2401 11.427 12.4014 11.4501L12.1186 13.4299ZM11.88 13.42H9.58V11.42H11.88V13.42ZM8.58 12.42V6.76H10.58V12.42H8.58ZM9.20622 5.83248C10.2448 5.41394 11.4306 5.22 12.74 5.22V7.22C11.6227 7.22 10.7018 7.38606 9.95378 7.68752L9.20622 5.83248ZM13.74 6.22V6.24H11.74V6.22H13.74Z" fill="black" mask="url(#path-2-outside-1_1_5)"/>
</svg>
